<mxfile host="Electron" modified="2024-07-08T02:43:26.630Z" agent="Mozilla/5.0 (Macintosh; Intel Mac OS X 10_15_7) AppleWebKit/537.36 (KHTML, like Gecko) draw.io/24.4.13 Chrome/124.0.6367.207 Electron/30.0.6 Safari/537.36" etag="6C898wNJl82tgdEU0iBX" version="24.4.13" type="device">
  <diagram name="第 1 页" id="S06D2hWPVQZP7A9DFkk_">
    <mxGraphModel dx="1853" dy="-502" grid="1" gridSize="10" guides="1" tooltips="1" connect="1" arrows="1" fold="1" page="1" pageScale="1" pageWidth="827" pageHeight="1169" math="0" shadow="0">
      <root>
        <mxCell id="0" />
        <mxCell id="1" parent="0" />
        <mxCell id="BigbOr8pdJxXL23ZNJjX-1" value="获取客制化内容&lt;br&gt;&lt;div style=&quot;color: rgb(0, 0, 0); font-size: medium; text-align: start;&quot; data-hash=&quot;16d39a5b071669c2bc043460d72533dd&quot; data-version=&quot;3.0.0&quot;&gt;&lt;/div&gt;&lt;div style=&quot;color: rgb(0, 0, 0); font-size: medium; text-align: start;&quot; class=&quot;document&quot;&gt;&lt;div class=&quot;section&quot;&gt;&lt;p style=&quot;margin: 3pt 0pt; font-family: 等线; font-size: 12pt; line-height: 20.8px;&quot; class=&quot;paragraph text-align-type-left&quot;&gt;&lt;span style=&quot;font-size: 11pt; letter-spacing: 0pt; vertical-align: baseline;&quot; data-font-family=&quot;default&quot;&gt;/mop/v1/preference/product/get&lt;/span&gt;&lt;/p&gt;&lt;/div&gt;&lt;/div&gt;" style="whiteSpace=wrap;html=1;rounded=1;arcSize=50;align=center;verticalAlign=middle;strokeWidth=1;autosize=0;spacing=4;treeFolding=1;treeMoving=1;newEdgeStyle={&quot;edgeStyle&quot;:&quot;entityRelationEdgeStyle&quot;,&quot;startArrow&quot;:&quot;none&quot;,&quot;endArrow&quot;:&quot;none&quot;,&quot;segment&quot;:10,&quot;curved&quot;:1,&quot;sourcePerimeterSpacing&quot;:0,&quot;targetPerimeterSpacing&quot;:0};strokeColor=#2D7600;fontFamily=Helvetica;fontSize=12;fontColor=#ffffff;fillColor=#60a917;" vertex="1" parent="1">
          <mxGeometry x="-670" y="1640" width="120" height="60" as="geometry" />
        </mxCell>
        <mxCell id="BigbOr8pdJxXL23ZNJjX-2" value="" style="edgeStyle=entityRelationEdgeStyle;rounded=0;orthogonalLoop=1;jettySize=auto;html=1;startArrow=none;endArrow=none;segment=10;curved=1;sourcePerimeterSpacing=0;targetPerimeterSpacing=0;fontFamily=Helvetica;fontSize=12;fontColor=#ffffff;" edge="1" parent="1" source="BigbOr8pdJxXL23ZNJjX-3" target="BigbOr8pdJxXL23ZNJjX-4">
          <mxGeometry relative="1" as="geometry" />
        </mxCell>
        <mxCell id="BigbOr8pdJxXL23ZNJjX-3" value="CC" style="whiteSpace=wrap;html=1;rounded=1;arcSize=50;align=center;verticalAlign=middle;strokeWidth=1;autosize=0;spacing=4;treeFolding=1;treeMoving=1;newEdgeStyle={&quot;edgeStyle&quot;:&quot;entityRelationEdgeStyle&quot;,&quot;startArrow&quot;:&quot;none&quot;,&quot;endArrow&quot;:&quot;none&quot;,&quot;segment&quot;:10,&quot;curved&quot;:1,&quot;sourcePerimeterSpacing&quot;:0,&quot;targetPerimeterSpacing&quot;:0};strokeColor=#3700CC;fontFamily=Helvetica;fontSize=12;fontColor=#ffffff;fillColor=#6a00ff;" vertex="1" parent="1">
          <mxGeometry x="-450" y="1640" width="120" height="60" as="geometry" />
        </mxCell>
        <mxCell id="BigbOr8pdJxXL23ZNJjX-12" style="edgeStyle=orthogonalEdgeStyle;rounded=0;orthogonalLoop=1;jettySize=auto;html=1;exitX=1;exitY=0.5;exitDx=0;exitDy=0;entryX=0;entryY=0.5;entryDx=0;entryDy=0;" edge="1" parent="1" source="BigbOr8pdJxXL23ZNJjX-4" target="BigbOr8pdJxXL23ZNJjX-9">
          <mxGeometry relative="1" as="geometry" />
        </mxCell>
        <mxCell id="BigbOr8pdJxXL23ZNJjX-15" style="edgeStyle=orthogonalEdgeStyle;rounded=0;orthogonalLoop=1;jettySize=auto;html=1;exitX=1;exitY=0.5;exitDx=0;exitDy=0;entryX=0;entryY=0.5;entryDx=0;entryDy=0;" edge="1" parent="1" source="BigbOr8pdJxXL23ZNJjX-4" target="BigbOr8pdJxXL23ZNJjX-14">
          <mxGeometry relative="1" as="geometry" />
        </mxCell>
        <mxCell id="BigbOr8pdJxXL23ZNJjX-17" value="或" style="edgeLabel;html=1;align=center;verticalAlign=middle;resizable=0;points=[];" vertex="1" connectable="0" parent="BigbOr8pdJxXL23ZNJjX-15">
          <mxGeometry x="-0.7167" relative="1" as="geometry">
            <mxPoint as="offset" />
          </mxGeometry>
        </mxCell>
        <mxCell id="BigbOr8pdJxXL23ZNJjX-4" value="&lt;font color=&quot;#000000&quot;&gt;/preference/products/${customer_id}&lt;br&gt;获取所有收藏的商品客制化&lt;br&gt;&lt;/font&gt;" style="text;html=1;align=center;verticalAlign=middle;whiteSpace=wrap;rounded=0;fontFamily=Helvetica;fontSize=12;fontColor=#ffffff;autosize=1;" vertex="1" parent="1">
          <mxGeometry x="-290" y="1650" width="220" height="40" as="geometry" />
        </mxCell>
        <mxCell id="BigbOr8pdJxXL23ZNJjX-5" value="" style="edgeStyle=orthogonalEdgeStyle;rounded=0;orthogonalLoop=1;jettySize=auto;html=1;fontFamily=Helvetica;fontSize=12;fontColor=#ffffff;entryX=0;entryY=0.5;entryDx=0;entryDy=0;exitX=1;exitY=0.5;exitDx=0;exitDy=0;" edge="1" parent="1" source="BigbOr8pdJxXL23ZNJjX-1" target="BigbOr8pdJxXL23ZNJjX-3">
          <mxGeometry relative="1" as="geometry">
            <mxPoint x="-784" y="1685" as="sourcePoint" />
            <mxPoint x="-656" y="1805" as="targetPoint" />
          </mxGeometry>
        </mxCell>
        <mxCell id="BigbOr8pdJxXL23ZNJjX-6" value="&lt;font style=&quot;font-size: 20px;&quot; color=&quot;#000000&quot;&gt;1:1&lt;/font&gt;" style="edgeLabel;html=1;align=center;verticalAlign=middle;resizable=0;points=[];rounded=1;strokeColor=#2D7600;fontFamily=Helvetica;fontSize=12;fontColor=#ffffff;fillColor=#60a917;" vertex="1" connectable="0" parent="BigbOr8pdJxXL23ZNJjX-5">
          <mxGeometry x="0.691" y="2" relative="1" as="geometry">
            <mxPoint x="-2" y="-14" as="offset" />
          </mxGeometry>
        </mxCell>
        <mxCell id="BigbOr8pdJxXL23ZNJjX-7" value="&lt;font style=&quot;font-size: 48px;&quot;&gt;MOP商品详情页场景&lt;/font&gt;" style="text;strokeColor=none;fillColor=none;align=left;verticalAlign=middle;spacingLeft=4;spacingRight=4;overflow=hidden;points=[[0,0.5],[1,0.5]];portConstraint=eastwest;rotatable=0;whiteSpace=wrap;html=1;" vertex="1" parent="1">
          <mxGeometry x="-740" y="1340" width="487.5" height="73" as="geometry" />
        </mxCell>
        <mxCell id="BigbOr8pdJxXL23ZNJjX-8" value="&lt;font style=&quot;font-size: 36px;&quot;&gt;系统视角&lt;/font&gt;" style="text;html=1;align=center;verticalAlign=middle;resizable=0;points=[];autosize=1;strokeColor=none;fillColor=none;" vertex="1" parent="1">
          <mxGeometry x="-740" y="1460" width="170" height="60" as="geometry" />
        </mxCell>
        <mxCell id="BigbOr8pdJxXL23ZNJjX-9" value="redis" style="rounded=1;whiteSpace=wrap;html=1;fillColor=#f8cecc;strokeColor=#b85450;" vertex="1" parent="1">
          <mxGeometry y="1580" width="110" height="40" as="geometry" />
        </mxCell>
        <mxCell id="BigbOr8pdJxXL23ZNJjX-13" value="&lt;font style=&quot;font-size: 20px;&quot; color=&quot;#000000&quot;&gt;1:1&lt;/font&gt;" style="edgeLabel;html=1;align=center;verticalAlign=middle;resizable=0;points=[];rounded=1;strokeColor=#2D7600;fontFamily=Helvetica;fontSize=12;fontColor=#ffffff;fillColor=#60a917;" vertex="1" connectable="0" parent="1">
          <mxGeometry x="-200" y="1620" as="geometry">
            <mxPoint x="167" y="-34" as="offset" />
          </mxGeometry>
        </mxCell>
        <mxCell id="BigbOr8pdJxXL23ZNJjX-14" value="mysql" style="rounded=1;whiteSpace=wrap;html=1;fillColor=#f8cecc;strokeColor=#b85450;" vertex="1" parent="1">
          <mxGeometry y="1700" width="110" height="40" as="geometry" />
        </mxCell>
        <mxCell id="BigbOr8pdJxXL23ZNJjX-16" value="&lt;font style=&quot;font-size: 20px;&quot; color=&quot;#000000&quot;&gt;1:1&lt;/font&gt;" style="edgeLabel;html=1;align=center;verticalAlign=middle;resizable=0;points=[];rounded=1;strokeColor=#2D7600;fontFamily=Helvetica;fontSize=12;fontColor=#ffffff;fillColor=#60a917;" vertex="1" connectable="0" parent="1">
          <mxGeometry x="-200" y="1770" as="geometry">
            <mxPoint x="167" y="-34" as="offset" />
          </mxGeometry>
        </mxCell>
        <mxCell id="BigbOr8pdJxXL23ZNJjX-20" value="" style="edgeStyle=entityRelationEdgeStyle;rounded=0;orthogonalLoop=1;jettySize=auto;html=1;startArrow=none;endArrow=none;segment=10;curved=1;sourcePerimeterSpacing=0;targetPerimeterSpacing=0;" edge="1" parent="1" source="BigbOr8pdJxXL23ZNJjX-18" target="BigbOr8pdJxXL23ZNJjX-19">
          <mxGeometry relative="1" as="geometry" />
        </mxCell>
        <mxCell id="BigbOr8pdJxXL23ZNJjX-18" value="获取客制化商品详情&lt;br&gt;&lt;span style=&quot;letter-spacing: 0pt; background-color: initial; font-size: 11pt; font-family: 等线; text-align: start;&quot;&gt;&lt;font color=&quot;#000000&quot;&gt;/mop/v4/customization/product&lt;/font&gt;&lt;/span&gt;" style="whiteSpace=wrap;html=1;rounded=1;arcSize=50;align=center;verticalAlign=middle;strokeWidth=1;autosize=0;spacing=4;treeFolding=1;treeMoving=1;newEdgeStyle={&quot;edgeStyle&quot;:&quot;entityRelationEdgeStyle&quot;,&quot;startArrow&quot;:&quot;none&quot;,&quot;endArrow&quot;:&quot;none&quot;,&quot;segment&quot;:10,&quot;curved&quot;:1,&quot;sourcePerimeterSpacing&quot;:0,&quot;targetPerimeterSpacing&quot;:0};strokeColor=#2D7600;fontFamily=Helvetica;fontSize=12;fontColor=#ffffff;fillColor=#60a917;" vertex="1" parent="1">
          <mxGeometry x="-670" y="1800" width="120" height="60" as="geometry" />
        </mxCell>
        <mxCell id="BigbOr8pdJxXL23ZNJjX-22" value="" style="edgeStyle=entityRelationEdgeStyle;rounded=0;orthogonalLoop=1;jettySize=auto;html=1;startArrow=none;endArrow=none;segment=10;curved=1;sourcePerimeterSpacing=0;targetPerimeterSpacing=0;" edge="1" parent="1" source="BigbOr8pdJxXL23ZNJjX-19" target="BigbOr8pdJxXL23ZNJjX-21">
          <mxGeometry relative="1" as="geometry" />
        </mxCell>
        <mxCell id="BigbOr8pdJxXL23ZNJjX-19" value="CC" style="whiteSpace=wrap;html=1;rounded=1;arcSize=50;align=center;verticalAlign=middle;strokeWidth=1;autosize=0;spacing=4;treeFolding=1;treeMoving=1;newEdgeStyle={&quot;edgeStyle&quot;:&quot;entityRelationEdgeStyle&quot;,&quot;startArrow&quot;:&quot;none&quot;,&quot;endArrow&quot;:&quot;none&quot;,&quot;segment&quot;:10,&quot;curved&quot;:1,&quot;sourcePerimeterSpacing&quot;:0,&quot;targetPerimeterSpacing&quot;:0};strokeColor=#3700CC;fontFamily=Helvetica;fontSize=12;fontColor=#ffffff;fillColor=#6a00ff;" vertex="1" parent="1">
          <mxGeometry x="-450" y="1800" width="120" height="60" as="geometry" />
        </mxCell>
        <mxCell id="BigbOr8pdJxXL23ZNJjX-28" style="edgeStyle=orthogonalEdgeStyle;rounded=0;orthogonalLoop=1;jettySize=auto;html=1;exitX=1;exitY=0.5;exitDx=0;exitDy=0;" edge="1" parent="1" source="BigbOr8pdJxXL23ZNJjX-21" target="BigbOr8pdJxXL23ZNJjX-26">
          <mxGeometry relative="1" as="geometry" />
        </mxCell>
        <mxCell id="BigbOr8pdJxXL23ZNJjX-29" style="edgeStyle=orthogonalEdgeStyle;rounded=0;orthogonalLoop=1;jettySize=auto;html=1;exitX=1;exitY=0.5;exitDx=0;exitDy=0;entryX=0;entryY=0.5;entryDx=0;entryDy=0;" edge="1" parent="1" source="BigbOr8pdJxXL23ZNJjX-21" target="BigbOr8pdJxXL23ZNJjX-27">
          <mxGeometry relative="1" as="geometry" />
        </mxCell>
        <mxCell id="BigbOr8pdJxXL23ZNJjX-33" value="或" style="edgeLabel;html=1;align=center;verticalAlign=middle;resizable=0;points=[];" vertex="1" connectable="0" parent="BigbOr8pdJxXL23ZNJjX-29">
          <mxGeometry x="-0.76" y="2" relative="1" as="geometry">
            <mxPoint as="offset" />
          </mxGeometry>
        </mxCell>
        <mxCell id="BigbOr8pdJxXL23ZNJjX-21" value="&lt;span style=&quot;color: rgb(23, 43, 77); font-family: -apple-system, &amp;quot;system-ui&amp;quot;, &amp;quot;Segoe UI&amp;quot;, Roboto, Oxygen, Ubuntu, &amp;quot;Fira Sans&amp;quot;, &amp;quot;Droid Sans&amp;quot;, &amp;quot;Helvetica Neue&amp;quot;, sans-serif; font-size: 14px; text-align: left; background-color: rgb(255, 255, 255);&quot;&gt;/preference/products/productIds&lt;br&gt;&lt;/span&gt;&lt;font color=&quot;#000000&quot;&gt;获取收藏过客制化的商品ID列表&lt;br&gt;&lt;/font&gt;" style="text;html=1;align=center;verticalAlign=middle;whiteSpace=wrap;rounded=0;fontFamily=Helvetica;fontSize=12;fontColor=#ffffff;autosize=1;" vertex="1" parent="1">
          <mxGeometry x="-295" y="1810" width="230" height="40" as="geometry" />
        </mxCell>
        <mxCell id="BigbOr8pdJxXL23ZNJjX-26" value="redis" style="rounded=1;whiteSpace=wrap;html=1;fillColor=#f8cecc;strokeColor=#b85450;" vertex="1" parent="1">
          <mxGeometry y="1790" width="110" height="40" as="geometry" />
        </mxCell>
        <mxCell id="BigbOr8pdJxXL23ZNJjX-27" value="mysql" style="rounded=1;whiteSpace=wrap;html=1;fillColor=#f8cecc;strokeColor=#b85450;" vertex="1" parent="1">
          <mxGeometry y="1870" width="110" height="40" as="geometry" />
        </mxCell>
        <mxCell id="BigbOr8pdJxXL23ZNJjX-30" value="&lt;font style=&quot;font-size: 20px;&quot; color=&quot;#000000&quot;&gt;1:1&lt;/font&gt;" style="edgeLabel;html=1;align=center;verticalAlign=middle;resizable=0;points=[];rounded=1;strokeColor=#2D7600;fontFamily=Helvetica;fontSize=12;fontColor=#ffffff;fillColor=#60a917;" vertex="1" connectable="0" parent="1">
          <mxGeometry x="-190" y="1820" as="geometry">
            <mxPoint x="167" y="-34" as="offset" />
          </mxGeometry>
        </mxCell>
        <mxCell id="BigbOr8pdJxXL23ZNJjX-31" value="&lt;font style=&quot;font-size: 20px;&quot; color=&quot;#000000&quot;&gt;1:1&lt;/font&gt;" style="edgeLabel;html=1;align=center;verticalAlign=middle;resizable=0;points=[];rounded=1;strokeColor=#2D7600;fontFamily=Helvetica;fontSize=12;fontColor=#ffffff;fillColor=#60a917;" vertex="1" connectable="0" parent="1">
          <mxGeometry x="-190" y="1950" as="geometry">
            <mxPoint x="167" y="-34" as="offset" />
          </mxGeometry>
        </mxCell>
        <mxCell id="BigbOr8pdJxXL23ZNJjX-32" value="&lt;font style=&quot;font-size: 20px;&quot; color=&quot;#000000&quot;&gt;1:1&lt;/font&gt;" style="edgeLabel;html=1;align=center;verticalAlign=middle;resizable=0;points=[];rounded=1;strokeColor=#2D7600;fontFamily=Helvetica;fontSize=12;fontColor=#ffffff;fillColor=#60a917;" vertex="1" connectable="0" parent="1">
          <mxGeometry x="-670" y="1840" as="geometry">
            <mxPoint x="167" y="-34" as="offset" />
          </mxGeometry>
        </mxCell>
      </root>
    </mxGraphModel>
  </diagram>
</mxfile>
